<svg width="256" height="256" viewBox="0 0 24 24" xmlns="http://www.w3.org/2000/svg"><rect x="0" y="0" width="24" height="24" rx="8" fill="none"/><svg xmlns="http://www.w3.org/2000/svg" viewBox="0 0 24 24" fill="white" x="0" y="0" width="24" height="24"><path fill="white" d="M19 4a3 3 0 0 1 3 3v10a3 3 0 0 1-3 3H5a3 3 0 0 1-3-3V7a3 3 0 0 1 3-3zm-3.2 5.4c-.577-.769-1.8-.361-1.8.6v4a1 1 0 0 0 1 1l.117-.007A1 1 0 0 0 16 14v-1l1.2 1.6c.577.769 1.8.361 1.8-.6v-4a1 1 0 0 0-1-1l-.117.007A1 1 0 0 0 17 10v1zm-9 0C6.223 8.631 5 9.039 5 10v4a1 1 0 0 0 1 1l.117-.007A1 1 0 0 0 7 14v-1l1.2 1.6c.577.769 1.8.361 1.8-.6v-4a1 1 0 0 0-1-1l-.117.007A1 1 0 0 0 8 10v1zm5.2 3.1a1 1 0 0 0-1 1v.01a1 1 0 0 0 2 0v-.01a1 1 0 0 0-1-1m0-3a1 1 0 0 0-1 1v.01a1 1 0 0 0 2 0v-.01a1 1 0 0 0-1-1"/></svg></svg>